<svg xmlns="http://www.w3.org/2000/svg" viewBox="0 0 216.24 216.24">
  <defs>
    <style>
      .animated-icon {
        fill: #5779ee;
        stroke: #5779ee;
        stroke-width: 1.5px;
        fill-opacity: 0;
        stroke-dasharray: 3000;
        stroke-dashoffset: 3000;
        animation: draw-fill 2.5s ease-in-out forwards;
        animation-delay: 0.2s
      }

      @keyframes draw-fill {
        70% {
          fill-opacity: 0;
          stroke-dashoffset: 0;
        }
        100% {
          fill-opacity: 1;
          stroke-dashoffset: 0;
        }
      }
    </style>
  </defs>
  
  <path class="animated-icon" d="M108.12,14.12c-74,0-94,20-94,94s20,94,94,94,94-20,94-94S182.13,14.12,108.12,14.12Zm23,144a206.83,206.83,0,0,0-2-26.23c-.06-.46-.13-.92-.2-1.37-2.3-15.1-6.19-26.72-10.78-35.67a35.53,35.53,0,0,0-4.47-7.61,36,36,0,1,0-8.28,51.55l4.8,12.59A50,50,0,1,1,96.05,59.29h0A49.87,49.87,0,0,1,119.6,71.9l.36.35a60.07,60.07,0,0,1,6.61,7.89s0,0,0,0c5.12,7.24,9.87,17,13.26,30.1a154.9,154.9,0,0,1,3.9,21.74h0A226.59,226.59,0,0,1,145,158.16Zm16-32.3-4-21.56,22.49-41.66H181.2Z"/>
</svg>